<?xml version="1.0" encoding="UTF-8" standalone="no"?>
<!-- Created with Inkscape (http://www.inkscape.org/) -->

<svg
   width="8"
   height="8"
   viewBox="0 0 8 8"
   version="1.1"
   id="svg1"
   xmlns="http://www.w3.org/2000/svg"
   xmlns:svg="http://www.w3.org/2000/svg">
  <defs
     id="defs1" />
  <circle
     style="display:none;fill:#ffffff;fill-opacity:1;stroke:none;stroke-width:2;stroke-linecap:round;stroke-linejoin:round;stroke-dasharray:none"
     id="path3"
     cx="4"
     cy="4"
     r="4" />
  <g
     id="layer1"
     style="display:inline">
    <circle
       style="display:inline;fill:#b0b0b0;fill-opacity:1;stroke:none;stroke-width:2;stroke-linecap:round;stroke-linejoin:round;stroke-dasharray:none"
       id="circle7"
       cx="4"
       cy="4"
       r="4" />
    <path
       id="path2"
       style="display:inline;fill:#000000;fill-opacity:1;stroke:#000000;stroke-width:0.290661;stroke-linecap:round;stroke-linejoin:round;stroke-dasharray:none"
       d="M 3.4186772,0.80272478 V 1.7530512 C 3.2094725,1.8072671 3.0088473,1.8903833 2.8225944,1.9999999 L 2.1504399,1.3278454 1.3278454,2.1504399 1.9999999,2.8225944 C 1.8903833,3.0088473 1.8072671,3.2094725 1.7530512,3.4186772 H 0.80272478 V 4.5813228 H 1.7530512 c 0.054216,0.2092047 0.1373321,0.4098299 0.2469487,0.5960828 L 1.3278454,5.8495601 2.1504399,6.6721545 2.8225944,6 C 3.0088473,6.1096165 3.2094725,6.1927329 3.4186772,6.2469488 V 7.1972752 H 4.5813228 V 6.2469488 C 4.7905275,6.1927329 4.9911527,6.1096165 5.1774056,6 L 5.8495601,6.6721545 6.6721545,5.8495601 6,5.1774056 C 6.1096165,4.9911527 6.1927329,4.7905275 6.2469488,4.5813228 H 7.1972752 V 3.4186772 H 6.2509227 C 6.196599,3.2084323 6.1130931,3.006833 6.0028386,2.8197558 L 6.6721545,2.1504399 5.8495601,1.3278454 5.1802442,1.9971614 C 4.993167,1.8869069 4.7915677,1.8034009 4.5813228,1.7490774 V 0.80272478 Z M 4,2.8373545 C 4.6421114,2.8373545 5.1626455,3.3578886 5.1626455,4 5.1626455,4.6421114 4.6421114,5.1626455 4,5.1626455 3.3578886,5.1626455 2.8373545,4.6421114 2.8373545,4 2.8373545,3.3578886 3.3578886,2.8373545 4,2.8373545 Z" />
  </g>
  <g
     id="g4"
     style="display:none">
    <circle
       style="fill:#b0b0b0;fill-opacity:1;stroke:none;stroke-width:2;stroke-linecap:round;stroke-linejoin:round;stroke-dasharray:none"
       id="circle3"
       cx="4"
       cy="4"
       r="4" />
    <path
       id="path7"
       style="display:inline;fill:#000000;fill-opacity:1;stroke:#000000;stroke-width:0.290661;stroke-linecap:round;stroke-linejoin:round;stroke-dasharray:none"
       d="M 3.4186772,0.80272478 V 1.7530512 C 3.2094725,1.8072671 3.0088473,1.8903833 2.8225944,1.9999999 L 2.1504399,1.3278454 1.3278454,2.1504399 1.9999999,2.8225944 C 1.8903833,3.0088473 1.8072671,3.2094725 1.7530512,3.4186772 H 0.80272478 V 4.5813228 H 1.7530512 c 0.054216,0.2092047 0.1373321,0.4098299 0.2469487,0.5960828 L 1.3278454,5.8495601 2.1504399,6.6721545 2.8225944,6 C 3.0088473,6.1096165 3.2094725,6.1927329 3.4186772,6.2469488 V 7.1972752 H 4.5813228 V 6.2469488 C 4.7905275,6.1927329 4.9911527,6.1096165 5.1774056,6 L 5.8495601,6.6721545 6.6721545,5.8495601 6,5.1774056 C 6.1096165,4.9911527 6.1927329,4.7905275 6.2469488,4.5813228 H 7.1972752 V 3.4186772 H 6.2509227 C 6.196599,3.2084323 6.1130931,3.006833 6.0028386,2.8197558 L 6.6721545,2.1504399 5.8495601,1.3278454 5.1802442,1.9971614 C 4.993167,1.8869069 4.7915677,1.8034009 4.5813228,1.7490774 V 0.80272478 Z M 4,2.8373545 C 4.6421114,2.8373545 5.1626455,3.3578886 5.1626455,4 5.1626455,4.6421114 4.6421114,5.1626455 4,5.1626455 3.3578886,5.1626455 2.8373545,4.6421114 2.8373545,4 2.8373545,3.3578886 3.3578886,2.8373545 4,2.8373545 Z" />
    <circle
       style="fill:#ffffff;fill-opacity:0.2;stroke:none;stroke-width:2;stroke-linecap:round;stroke-linejoin:round;stroke-dasharray:none"
       id="circle6"
       cx="4"
       cy="4"
       r="4" />
  </g>
  <g
     id="g5"
     style="display:none">
    <circle
       style="fill:#b0b0b0;fill-opacity:1;stroke:none;stroke-width:2;stroke-linecap:round;stroke-linejoin:round;stroke-dasharray:none"
       id="circle4"
       cx="4"
       cy="4"
       r="4" />
    <path
       id="path8"
       style="display:inline;fill:#000000;fill-opacity:1;stroke:#000000;stroke-width:0.261595;stroke-linecap:round;stroke-linejoin:round;stroke-dasharray:none"
       d="M 3.4768095,1.1224523 V 1.9777461 C 3.2885252,2.0265404 3.1079626,2.101345 2.940335,2.1999999 L 2.3353959,1.5950609 1.5950609,2.3353959 2.1999999,2.940335 C 2.101345,3.1079626 2.0265404,3.2885252 1.9777461,3.4768095 H 1.1224523 v 1.046381 H 1.9777461 C 2.0265405,4.7114747 2.101345,4.8920374 2.1999999,5.059665 L 1.5950609,5.6646041 2.3353959,6.404939 2.940335,5.8 c 0.1676276,0.098655 0.3481902,0.1734596 0.5364745,0.2222539 v 0.8552938 h 1.046381 V 6.0222539 C 4.7114747,5.9734596 4.8920374,5.8986548 5.059665,5.8 L 5.6646041,6.404939 6.404939,5.6646041 5.8,5.059665 C 5.8986548,4.8920374 5.9734596,4.7114747 6.0222539,4.5231905 H 6.8775477 V 3.4768095 H 6.0258304 C 5.9769391,3.2875891 5.9017838,3.1061497 5.8025547,2.9377802 L 6.404939,2.3353959 5.6646041,1.5950609 5.0622198,2.1974453 C 4.8938503,2.0982162 4.7124109,2.0230608 4.5231905,1.9741697 V 1.1224523 Z M 4,2.953619 C 4.5779003,2.953619 5.0463809,3.4220997 5.0463809,4 5.0463809,4.5779003 4.5779003,5.0463809 4,5.0463809 3.4220997,5.0463809 2.953619,4.5779003 2.953619,4 2.953619,3.4220997 3.4220997,2.953619 4,2.953619 Z" />
    <circle
       style="fill:#ffffff;fill-opacity:0.35;stroke:none;stroke-width:2;stroke-linecap:round;stroke-linejoin:round;stroke-dasharray:none"
       id="circle5"
       cx="4"
       cy="4"
       r="4" />
  </g>
</svg>
