<?xml version="1.0" encoding="UTF-8" standalone="no"?>
<!-- Created with Inkscape (http://www.inkscape.org/) -->

<svg
   width="32"
   height="32"
   viewBox="0 0 32 32"
   version="1.1"
   id="svg1"
   xmlns="http://www.w3.org/2000/svg"
   xmlns:svg="http://www.w3.org/2000/svg">
  <defs
     id="defs1" />
  <g
     id="layer1"
     style="display:inline">
    <path
       style="fill:#afafaf;fill-opacity:1;stroke:none;stroke-width:3.7223;stroke-linejoin:bevel"
       id="path1"
       d="m 28.999999,28.999999 c -3.676955,3.676955 -22.3230431,3.676955 -25.9999981,0 -3.67695509,-3.676955 -3.67695515,-22.3230431 -10e-8,-25.9999981 3.676955,-3.67695509 22.3230432,-3.67695515 25.9999982,-10e-8 3.676955,3.676955 3.676955,22.3230432 0,25.9999982 z"
       transform="matrix(1.0153756,0,0,1.0153756,-0.24600981,-0.24600981)" />
    <path
       id="path2"
       style="fill:#000000;fill-opacity:1;stroke:#000000;stroke-width:1;stroke-linecap:round;stroke-linejoin:round;stroke-dasharray:none"
       d="m 14,5 v 3.2695312 c -0.719754,0.1865259 -1.409991,0.4724812 -2.050781,0.8496094 l -2.3125002,-2.3125 -2.8300782,2.8300782 2.3125,2.3125002 C 8.7420124,12.590009 8.4560572,13.280246 8.2695312,14 H 5 v 4 h 3.2695312 c 0.1865259,0.719754 0.4724812,1.409991 0.8496094,2.050781 l -2.3125,2.3125 2.8300782,2.830078 2.3125002,-2.3125 c 0.64079,0.377128 1.331027,0.663084 2.050781,0.84961 V 27 h 4 v -3.269531 c 0.719754,-0.186526 1.409991,-0.472482 2.050781,-0.84961 l 2.3125,2.3125 2.830078,-2.830078 -2.3125,-2.3125 C 23.257987,19.409991 23.543943,18.719754 23.730469,18 H 27 V 14 H 23.744141 C 23.557244,13.276667 23.269948,12.583079 22.890625,11.939453 L 25.193359,9.6367188 22.363281,6.8066406 20.060547,9.109375 C 19.416921,8.7300523 18.723333,8.4427558 18,8.2558594 V 5 Z m 2,7 c 2.209139,0 4,1.790861 4,4 0,2.209139 -1.790861,4 -4,4 -2.209139,0 -4,-1.790861 -4,-4 0,-2.209139 1.790861,-4 4,-4 z" />
  </g>
  <g
     id="g11"
     style="display:none">
    <path
       style="fill:#afafaf;fill-opacity:1;stroke:none;stroke-width:3.7223;stroke-linejoin:bevel"
       id="path10"
       d="m 28.999999,28.999999 c -3.676955,3.676955 -22.3230431,3.676955 -25.9999981,0 -3.67695509,-3.676955 -3.67695515,-22.3230431 -10e-8,-25.9999981 3.676955,-3.67695509 22.3230432,-3.67695515 25.9999982,-10e-8 3.676955,3.676955 3.676955,22.3230432 0,25.9999982 z"
       transform="matrix(1.0153756,0,0,1.0153756,-0.24600981,-0.24600981)" />
    <path
       id="path11"
       style="fill:#000000;fill-opacity:1;stroke:#000000;stroke-width:1;stroke-linecap:round;stroke-linejoin:round;stroke-dasharray:none"
       d="M 13.581818,2.7 V 6.6531604 C 12.71157,6.8786872 11.877011,7.2244331 11.102237,7.6804154 L 8.3062145,4.8843927 4.8843927,8.3062145 7.6804154,11.102237 C 7.2244331,11.877011 6.8786873,12.71157 6.6531604,13.581818 H 2.7 v 4.836364 h 3.9531604 c 0.2255268,0.870248 0.5712727,1.704807 1.027255,2.47958 l -2.7960227,2.796023 3.4218218,3.421822 2.7960225,-2.796023 c 0.774774,0.455982 1.609333,0.801729 2.479581,1.027256 V 29.3 h 4.836364 v -3.95316 c 0.870248,-0.225527 1.704807,-0.571274 2.47958,-1.027256 l 2.796023,2.796023 3.421822,-3.421822 -2.796023,-2.796023 c 0.455982,-0.774773 0.801729,-1.609332 1.027256,-2.47958 H 29.3 V 13.581818 H 25.36337 C 25.137395,12.707243 24.790028,11.868632 24.331392,11.090429 L 27.115607,8.3062145 23.693785,4.8843927 20.90957,7.6686079 C 20.131368,7.2099723 19.292757,6.8626047 18.418182,6.63663 V 2.7 Z M 16,11.163636 c 2.67105,0 4.836363,2.165314 4.836363,4.836364 0,2.67105 -2.165313,4.836363 -4.836363,4.836363 -2.67105,0 -4.836364,-2.165313 -4.836364,-4.836363 0,-2.67105 2.165314,-4.836364 4.836364,-4.836364 z" />
  </g>
</svg>
