<?xml version="1.0" encoding="UTF-8" standalone="no"?>
<!-- Created with Inkscape (http://www.inkscape.org/) -->

<svg
   width="32"
   height="32"
   viewBox="0 0 32 32"
   version="1.1"
   id="svg1"
   xmlns="http://www.w3.org/2000/svg"
   xmlns:svg="http://www.w3.org/2000/svg">
  <defs
     id="defs1" />
  <g
     id="layer1"
     style="display:none">
    <path
       style="fill:#afafaf;fill-opacity:1;stroke:none;stroke-width:3.7223;stroke-linejoin:bevel"
       id="path1"
       d="m 28.999999,28.999999 c -3.676955,3.676955 -22.3230431,3.676955 -25.9999981,0 -3.67695509,-3.676955 -3.67695515,-22.3230431 -10e-8,-25.9999981 3.676955,-3.67695509 22.3230432,-3.67695515 25.9999982,-10e-8 3.676955,3.676955 3.676955,22.3230432 0,25.9999982 z"
       transform="matrix(1.0153756,0,0,1.0153756,-0.24600981,-0.24600981)" />
    <path
       id="path2"
       style="fill:#000000;fill-opacity:1;stroke:#000000;stroke-width:1;stroke-linecap:round;stroke-linejoin:round;stroke-dasharray:none"
       d="m 14,5 v 3.2695312 c -0.719754,0.1865259 -1.409991,0.4724812 -2.050781,0.8496094 l -2.3125002,-2.3125 -2.8300782,2.8300782 2.3125,2.3125002 C 8.7420124,12.590009 8.4560572,13.280246 8.2695312,14 H 5 v 4 h 3.2695312 c 0.1865259,0.719754 0.4724812,1.409991 0.8496094,2.050781 l -2.3125,2.3125 2.8300782,2.830078 2.3125002,-2.3125 c 0.64079,0.377128 1.331027,0.663084 2.050781,0.84961 V 27 h 4 v -3.269531 c 0.719754,-0.186526 1.409991,-0.472482 2.050781,-0.84961 l 2.3125,2.3125 2.830078,-2.830078 -2.3125,-2.3125 C 23.257987,19.409991 23.543943,18.719754 23.730469,18 H 27 V 14 H 23.744141 C 23.557244,13.276667 23.269948,12.583079 22.890625,11.939453 L 25.193359,9.6367188 22.363281,6.8066406 20.060547,9.109375 C 19.416921,8.7300523 18.723333,8.4427558 18,8.2558594 V 5 Z m 2,7 c 2.209139,0 4,1.790861 4,4 0,2.209139 -1.790861,4 -4,4 -2.209139,0 -4,-1.790861 -4,-4 0,-2.209139 1.790861,-4 4,-4 z" />
  </g>
  <g
     id="g14"
     style="display:none">
    <path
       style="fill:#afafaf;fill-opacity:1;stroke:none;stroke-width:3.7223;stroke-linejoin:bevel"
       id="path13"
       d="m 28.999999,28.999999 c -3.676955,3.676955 -22.3230431,3.676955 -25.9999981,0 -3.67695509,-3.676955 -3.67695515,-22.3230431 -10e-8,-25.9999981 3.676955,-3.67695509 22.3230432,-3.67695515 25.9999982,-10e-8 3.676955,3.676955 3.676955,22.3230432 0,25.9999982 z"
       transform="matrix(1.0153756,0,0,1.0153756,-0.24600981,-0.24600981)" />
    <path
       id="path14"
       style="fill:#000000;fill-opacity:1;stroke:#000000;stroke-width:1;stroke-linecap:round;stroke-linejoin:round;stroke-dasharray:none"
       d="m 14,5 v 3.2695312 c -0.719754,0.1865259 -1.409991,0.4724812 -2.050781,0.8496094 l -2.3125002,-2.3125 -2.8300782,2.8300782 2.3125,2.3125002 C 8.7420124,12.590009 8.4560572,13.280246 8.2695312,14 H 5 v 4 h 3.2695312 c 0.1865259,0.719754 0.4724812,1.409991 0.8496094,2.050781 l -2.3125,2.3125 2.8300782,2.830078 2.3125002,-2.3125 c 0.64079,0.377128 1.331027,0.663084 2.050781,0.84961 V 27 h 4 v -3.269531 c 0.719754,-0.186526 1.409991,-0.472482 2.050781,-0.84961 l 2.3125,2.3125 2.830078,-2.830078 -2.3125,-2.3125 C 23.257987,19.409991 23.543943,18.719754 23.730469,18 H 27 V 14 H 23.744141 C 23.557244,13.276667 23.269948,12.583079 22.890625,11.939453 L 25.193359,9.6367188 22.363281,6.8066406 20.060547,9.109375 C 19.416921,8.7300523 18.723333,8.4427558 18,8.2558594 V 5 Z m 2,7 c 2.209139,0 4,1.790861 4,4 0,2.209139 -1.790861,4 -4,4 -2.209139,0 -4,-1.790861 -4,-4 0,-2.209139 1.790861,-4 4,-4 z" />
    <path
       style="mix-blend-mode:normal;fill:#ffffff;fill-opacity:0.2;stroke:none;stroke-width:3.7223;stroke-linejoin:bevel"
       id="path15"
       d="m 28.999999,28.999999 c -3.676955,3.676955 -22.3230431,3.676955 -25.9999981,0 -3.67695509,-3.676955 -3.67695515,-22.3230431 -10e-8,-25.9999981 3.676955,-3.67695509 22.3230432,-3.67695515 25.9999982,-10e-8 3.676955,3.676955 3.676955,22.3230432 0,25.9999982 z"
       transform="matrix(1.0153756,0,0,1.0153756,-0.24600981,-0.24600981)" />
  </g>
  <g
     id="g18"
     style="display:inline">
    <path
       style="fill:#afafaf;fill-opacity:1;stroke:none;stroke-width:3.7223;stroke-linejoin:bevel"
       id="path16"
       d="m 28.999999,28.999999 c -3.676955,3.676955 -22.3230431,3.676955 -25.9999981,0 -3.67695509,-3.676955 -3.67695515,-22.3230431 -10e-8,-25.9999981 3.676955,-3.67695509 22.3230432,-3.67695515 25.9999982,-10e-8 3.676955,3.676955 3.676955,22.3230432 0,25.9999982 z"
       transform="matrix(1.0153756,0,0,1.0153756,-0.24600981,-0.24600981)" />
    <path
       id="path17"
       style="fill:#000000;fill-opacity:1;stroke:#000000;stroke-width:0.999999;stroke-linecap:round;stroke-linejoin:round;stroke-dasharray:none"
       d="M 14.209091,6.15 V 9.0777166 C 13.564584,9.2447421 12.946508,9.5008021 12.37271,9.8385032 L 10.301971,7.7677646 7.7677646,10.301971 9.8385032,12.37271 c -0.3377011,0.573798 -0.593761,1.191874 -0.7607866,1.836381 H 6.15 v 3.581818 h 2.9277166 c 0.1670255,0.644507 0.4230855,1.262583 0.7607866,1.836381 l -2.0707386,2.070739 2.5342064,2.534206 2.070739,-2.070738 c 0.573798,0.337701 1.191874,0.593761 1.836381,0.760787 V 25.85 h 3.581818 v -2.927716 c 0.644507,-0.167026 1.262583,-0.423086 1.836381,-0.760787 l 2.070739,2.070738 2.534206,-2.534206 -2.070738,-2.070739 c 0.337701,-0.573798 0.593761,-1.191874 0.760787,-1.836381 H 25.85 v -3.581818 h -2.915474 c -0.167357,-0.647712 -0.424618,-1.268788 -0.764284,-1.845126 l 2.061993,-2.061994 -2.534206,-2.5342064 -2.061994,2.061994 C 19.059698,9.4900924 18.438621,9.2328314 17.790909,9.0654742 V 6.15 Z M 16,12.418182 c 1.978184,0 3.581818,1.603635 3.581818,3.581818 0,1.978184 -1.603634,3.581818 -3.581818,3.581818 -1.978183,0 -3.581818,-1.603634 -3.581818,-3.581818 0,-1.978183 1.603635,-3.581818 3.581818,-3.581818 z" />
    <path
       style="mix-blend-mode:normal;fill:#ffffff;fill-opacity:0.350685;stroke:none;stroke-width:3.7223;stroke-linejoin:bevel"
       id="path18"
       d="m 28.999999,28.999999 c -3.676955,3.676955 -22.3230431,3.676955 -25.9999981,0 -3.67695509,-3.676955 -3.67695515,-22.3230431 -10e-8,-25.9999981 3.676955,-3.67695509 22.3230432,-3.67695515 25.9999982,-10e-8 3.676955,3.676955 3.676955,22.3230432 0,25.9999982 z"
       transform="matrix(1.0153756,0,0,1.0153756,-0.24600981,-0.24600981)" />
  </g>
</svg>
